HIERARCHY
ROOT Hips
{
  OFFSET -187.679 86.5976 -156.378
  CHANNELS 6 Xposition Yposition Zposition Zrotation Xrotation Yrotation
  JOINT LeftUpLeg
  {
    OFFSET 8.64259 1.95398 -2.38835
    CHANNELS 3 Zrotation Xrotation Yrotation
    JOINT LeftLeg
    {
      OFFSET 43.7702 0 0
      CHANNELS 3 Zrotation Xrotation Yrotation
      JOINT LeftFoot
      {
        OFFSET 40.6238 0 0
        CHANNELS 3 Zrotation Xrotation Yrotation
        JOINT LeftToeBase
        {
          OFFSET 12.7242 0 0
          CHANNELS 3 Zrotation Xrotation Yrotation
          End Site
          {
            OFFSET 0 0 0
          }
        }
      }
    }
  }
  JOINT RightUpLeg
  {
    OFFSET -8.2249 1.95398 -2.59336
    CHANNELS 3 Zrotation Xrotation Yrotation
    JOINT RightLeg
    {
      OFFSET 43.5653 0 0
      CHANNELS 3 Zrotation Xrotation Yrotation
      JOINT RightFoot
      {
        OFFSET 40.6238 0 0
        CHANNELS 3 Zrotation Xrotation Yrotation
        JOINT RightToeBase
        {
          OFFSET 12.7242 0 0
          CHANNELS 3 Zrotation Xrotation Yrotation
          End Site
          {
            OFFSET 0 0 0
          }
        }
      }
    }
  }
  JOINT Spine
  {
    OFFSET 0.165834 0.87714 6.61349
    CHANNELS 3 Zrotation Xrotation Yrotation
    JOINT Spine1
    {
      OFFSET 7.38963 1.71661e-005 0
      CHANNELS 3 Zrotation Xrotation Yrotation
      JOINT Spine2
      {
        OFFSET 11.9445 1.14441e-005 0
        CHANNELS 3 Zrotation Xrotation Yrotation
        JOINT Spine3
        {
          OFFSET 14.7254 4.19617e-005 0
          CHANNELS 3 Zrotation Xrotation Yrotation
          JOINT Spine4
          {
            OFFSET 10.9679 0 0
            CHANNELS 3 Zrotation Xrotation Yrotation
            JOINT RightShoulder
            {
              OFFSET 2.46616 -1.6653 3.69651
              CHANNELS 3 Zrotation Xrotation Yrotation
              JOINT RightArm
              {
                OFFSET 13.0012 0 0
                CHANNELS 3 Zrotation Xrotation Yrotation
                JOINT RightForeArm
                {
                  OFFSET 28.7848 1.52588e-005 0
                  CHANNELS 3 Zrotation Xrotation Yrotation
                  JOINT RightHand
                  {
                    OFFSET 26.5688 1.52588e-005 0
                    CHANNELS 3 Zrotation Xrotation Yrotation
                    End Site
                    {
                      OFFSET 0 0 0
                    }
                  }
                }
              }
            }
            JOINT LeftShoulder
            {
              OFFSET 2.38034 -1.29275 -3.7523
              CHANNELS 3 Zrotation Xrotation Yrotation
              JOINT LeftArm
              {
                OFFSET 16.3182 6.10352e-005 0
                CHANNELS 3 Zrotation Xrotation Yrotation
                JOINT LeftForeArm
                {
                  OFFSET 27.0901 0 0
                  CHANNELS 3 Zrotation Xrotation Yrotation
                  JOINT LeftHand
                  {
                    OFFSET 24.5451 1.52588e-005 0
                    CHANNELS 3 Zrotation Xrotation Yrotation
                    End Site
                    {
                      OFFSET 0 0 0
                    }
                  }
                }
              }
            }
            JOINT Neck
            {
              OFFSET 5.0226 -0.0266342 0
              CHANNELS 3 Zrotation Xrotation Yrotation
              JOINT Head
              {
                OFFSET 6.69363 2.86102e-005 0
                CHANNELS 3 Zrotation Xrotation Yrotation
                End Site
                {
                  OFFSET 0 0 0
                }
              }
            }
          }
        }
      }
    }
  }
}
MOTION
Frames:	7
Frame Time:	0.0416667
-273.634 100.218 -254.117 -101.256 -56.307 -99.7593 -174.554 -4.68849 89.9655 -21.1993 18.9102 9.3703 69.624 4.47112 -0.914055 29.4525 1.66814 -4.57668 172.645 -5.2153 87.7685 -16.2798 1.89499 1.44829 67.0909 -3.61295 0.876328 24.282 -1.95417 3.80008 0.291613 7.89415 -90.1763 11.0864 0.498817 -0.399035 -0.584514 0.480766 -0.420616 -23.1202 0.595666 -0.230679 -3.10758 0.595668 -0.230683 86.5654 -48.8632 -106.18 27.4806 -18.9677 -9.59358 -16.3747 -8.3813 -19.3411 -8.40569 0.354493 -10.5019 -89.9227 -46.4884 78.2894 -28.1466 17.9721 -3.44539 11.3775 -3.76492 -20.615 -0.738517 -0.0807309 -3.76522 2.67076 12.1175 1.03656 6.51924 11.5858 -1.74892 
-273.775 100.084 -254.171 -100.051 -56.3486 -98.635 -174.149 -2.8984 90.5156 -23.1874 19.0709 8.69217 70.4449 4.79186 -1.00513 29.9012 1.92997 -4.9523 172.873 -4.26682 88.1087 -16.8807 2.03528 1.38584 67.18 -3.71465 0.747875 24.8674 -1.85705 3.85033 0.295214 7.85105 -90.2464 11.1727 0.473122 -0.536813 -0.498316 0.449017 -0.557124 -23.0337 0.612568 -0.369805 -3.02103 0.612573 -0.369816 86.6925 -48.6248 -106.056 26.9808 -18.809 -10.1623 -16.6911 -8.83399 -19.2275 -9.3184 0.307621 -9.30005 -90.5071 -47.5205 77.6294 -27.0156 17.3946 -3.80479 12.2996 -1.98929 -22.1533 0.519408 -0.0227127 -1.58835 2.87244 12.2209 1.74602 6.73407 11.5548 -1.84581 
-273.714 99.8851 -253.769 -99.6509 -56.3275 -98.4514 -174.402 -2.1385 90.0752 -24.7171 18.5984 8.53724 70.8728 5.15312 -0.421913 31.0404 2.27547 -4.85721 172.752 -3.34354 87.8275 -18.5983 2.03514 1.23442 67.8022 -3.83625 1.07564 25.5832 -1.69599 3.78122 0.27332 7.8641 -90.249 11.1464 0.428375 -0.537305 -0.524624 0.404306 -0.555634 -23.0598 0.570046 -0.383716 -3.04717 0.570052 -0.383725 86.8896 -48.4558 -105.804 26.8503 -18.838 -10.5893 -16.8224 -8.88552 -19.5656 -9.92095 0.234891 -8.12956 -90.3369 -47.2753 77.8327 -27.0866 17.0524 -4.0086 13.0357 -1.03327 -23.5886 0.19577 -0.0349005 -1.88073 3.46029 12.2078 1.65014 6.23587 11.5575 -1.76969 
-273.246 99.5083 -253.389 -99.0256 -57.1588 -98.2388 -174.661 0.296494 90.017 -28.333 18.5284 7.51046 72.0944 6.00529 -0.602335 31.4033 2.5341 -5.35072 171.948 -1.58472 86.8248 -21.497 1.43331 1.63167 69.2335 -4.0067 0.915202 25.5878 -1.58021 3.42176 0.262512 7.92186 -90.3334 11.0307 0.36804 -0.698708 -0.640424 0.336917 -0.714235 -23.1749 0.561 -0.555803 -3.1623 0.561013 -0.555802 88.5039 -47.1426 -103.664 27.6716 -18.1056 -11.3057 -17.7005 -10.4845 -20.7962 -9.43445 0.074452 -6.19215 -91.1794 -47.6503 76.6344 -26.595 17.6401 -5.25115 13.2979 -0.766841 -24.0429 -0.269615 -0.0418934 -1.66414 4.57139 11.83 2.07965 6.09477 11.1023 -1.47894 
-272.525 98.8807 -253.302 -98.9479 -57.5967 -97.3736 -173.726 4.12016 91.0326 -34.5788 20.4245 6.04753 72.5489 7.15574 2.20661 32.2068 3.03352 -6.23565 171.833 0.264603 87.1271 -24.89 2.04091 2.0216 70.2406 -4.13658 1.24115 26.7534 -1.42963 3.64696 0.241988 7.99325 -90.5503 10.8872 0.227471 -1.11608 -0.78419 0.178142 -1.12502 -23.3163 0.552351 -0.996142 -3.30365 0.552364 -0.99615 88.7736 -46.4789 -103.424 27.2388 -17.1118 -10.8728 -19.003 -12.1416 -22.6452 -8.75046 0.00922695 -5.41057 -91.5527 -48.1512 76.1903 -26.3995 17.283 -5.4875 13.0464 -1.38326 -25.1573 2.43693 0.0549035 -0.81499 5.22036 11.6313 2.55387 6.40032 10.8289 -1.0518 
-271.413 98.1932 -253.255 -97.2544 -57.2418 -95.5533 -172.717 9.4437 91.5269 -41.1846 17.0359 3.98592 72.1834 6.37608 0.611687 31.7168 2.93891 -6.44869 171.409 3.82436 86.7002 -29.147 0.290908 2.18158 70.8217 -4.26974 1.2094 28.1147 -1.09576 3.39223 0.24704 8.02905 -90.6571 10.8153 0.188598 -1.32445 -0.856309 0.130113 -1.33147 -23.3869 0.577896 -1.20658 -3.37426 0.577893 -1.20658 89.3155 -46.0072 -102.689 26.8393 -17.3924 -11.2353 -18.7311 -9.57707 -24.1462 -9.34244 0.123506 -6.88841 -91.3331 -47.9856 76.4823 -26.3961 17.4507 -5.18429 15.5148 2.14562 -27.9769 0.623006 -0.00858889 -1.16983 6.91526 11.7761 1.97428 5.89586 11.0704 -0.508235 
-270.089 97.2897 -253.075 -95.6498 -56.8281 -94.1301 -170.915 14.9543 92.1007 -47.8849 13.0261 1.33415 71.9387 6.17438 0.996116 32.4471 2.82582 -5.14663 170.05 7.74889 85.4485 -33.9527 -1.9678 2.70603 72.1533 -4.73565 1.28319 28.8143 -0.983997 3.44254 0.198084 8.11159 -90.7996 10.648 0.0266202 -1.59194 -1.02387 -0.0434886 -1.59157 -23.5518 0.503766 -1.51038 -3.53916 0.503769 -1.51038 89.737 -45.5312 -102.138 25.4688 -16.5617 -11.6955 -19.7628 -9.97444 -26.0943 -9.11858 0.0279604 -5.65061 -91.9423 -48.0349 75.5703 -26.609 16.7779 -4.42482 17.1575 4.03976 -30.1458 1.36655 0.050573 -0.0606639 9.39083 12.0437 2.19901 4.48861 11.2103 -0.670052 
